<svg width="56" height="51" viewBox="0 0 56 51" fill="none" xmlns="http://www.w3.org/2000/svg">
<g clip-path="url(#clip0_389_2781)">
<path fill-rule="evenodd" clip-rule="evenodd" d="M15.1826 31.4448C15.2648 31.3826 15.4173 31.3168 15.6464 31.2648C15.8668 31.2149 16.1176 31.1866 16.3616 31.1724C16.5203 31.1632 16.6715 31.1602 16.8031 31.1604C16.8041 31.1741 16.8041 31.1741 16.8041 31.1741L16.8043 31.1741L16.8068 31.1739L16.8189 31.1731C16.83 31.1724 16.8472 31.1714 16.8697 31.1702C16.9082 31.1682 16.9621 31.1658 17.0281 31.1638C17.094 31.1658 17.1479 31.1682 17.1864 31.1702C17.2089 31.1714 17.2261 31.1724 17.2373 31.1731L17.2494 31.1739L17.2519 31.1741L17.252 31.1741C17.252 31.1741 17.252 31.1741 17.253 31.1604C17.3847 31.1602 17.5358 31.1632 17.6945 31.1724C17.9386 31.1866 18.1893 31.2149 18.4098 31.2648C18.6388 31.3168 18.7914 31.3826 18.8736 31.4448C19.8837 32.2095 20.3916 33.0414 20.6026 33.8576C20.8157 34.682 20.7369 35.5338 20.4991 36.3451C20.0195 37.9816 18.9235 39.3505 18.5579 39.7545C18.0778 40.2851 18.1723 40.9437 18.3816 41.4004C18.5856 41.8455 18.9645 42.2635 19.3537 42.4334C19.5882 42.5358 21.1341 43.2712 22.6546 44.0584C23.4139 44.4515 24.1576 44.8527 24.7232 45.1906C25.0071 45.3602 25.2366 45.5082 25.3981 45.6274C25.4793 45.6873 25.5342 45.7333 25.5675 45.7653L25.5722 45.7699C25.6453 45.9883 25.6835 46.3641 25.6946 46.7501C25.7001 46.9435 25.6985 47.1199 25.6955 47.2481C25.6941 47.312 25.6922 47.3635 25.6908 47.3985L25.6891 47.4381L25.6886 47.4476L25.6885 47.4497L25.6885 47.4499L26.1877 47.4773C26.687 47.5047 26.687 47.5047 26.687 47.5046L26.687 47.5045L26.687 47.5041L26.6871 47.503L26.6872 47.4993L26.6879 47.4863L26.69 47.4392C26.6916 47.3991 26.6936 47.3417 26.6953 47.2713C26.6985 47.1309 26.7003 46.9366 26.6942 46.7216C26.6826 46.3174 26.6422 45.7509 26.4858 45.3576C26.4294 45.2157 26.3266 45.1081 26.2616 45.0455C26.1844 44.971 26.0911 44.896 25.9918 44.8227C25.7921 44.6754 25.5308 44.5082 25.2361 44.3321C24.6444 43.9786 23.8796 43.5665 23.1143 43.1703C21.5857 42.3789 20.0176 41.6321 19.7537 41.5169C19.6444 41.4692 19.42 41.2661 19.2907 40.9838C19.1666 40.7131 19.1978 40.5378 19.2994 40.4255C19.7087 39.9732 20.9179 38.4718 21.4588 36.6263C21.7312 35.6966 21.8415 34.6544 21.5707 33.6072C21.2979 32.5518 20.6488 31.5345 19.4771 30.6475L19.4771 30.6474C19.2289 30.4596 18.9152 30.354 18.6308 30.2896C18.3378 30.2232 18.0279 30.1901 17.7525 30.1741C17.4753 30.158 17.2218 30.1586 17.0382 30.1632C17.0348 30.1633 17.0314 30.1634 17.0281 30.1635C17.0247 30.1634 17.0213 30.1633 17.018 30.1632C16.8343 30.1586 16.5809 30.158 16.3037 30.1741C16.0283 30.1901 15.7183 30.2232 15.4253 30.2896C15.1409 30.354 14.8273 30.4596 14.5791 30.6474L14.579 30.6475C13.4073 31.5345 12.7583 32.5518 12.4854 33.6072C12.2147 34.6544 12.3249 35.6966 12.5974 36.6263C13.1383 38.4718 14.3474 39.9732 14.7567 40.4255C14.8583 40.5378 14.8895 40.7131 14.7655 40.9838C14.6361 41.2661 14.4117 41.4692 14.3024 41.5169C14.0385 41.6321 12.4705 42.3789 10.9418 43.1703C10.1766 43.5665 9.41178 43.9786 8.8201 44.3321C8.52537 44.5082 8.26406 44.6754 8.06439 44.8227C7.96505 44.896 7.87176 44.971 7.79453 45.0455C7.72959 45.1081 7.62678 45.2157 7.57034 45.3576C7.41392 45.7509 7.37354 46.3174 7.362 46.7216C7.35586 46.9366 7.35762 47.1309 7.36088 47.2713C7.36252 47.3417 7.36454 47.3991 7.36618 47.4392L7.36826 47.4863L7.36891 47.4993L7.3691 47.503L7.36916 47.5041L7.36918 47.5045L7.36919 47.5046C7.36919 47.5047 7.3692 47.5047 7.86844 47.4773L8.36769 47.4499L8.36768 47.4497L8.36757 47.4476L8.3671 47.4381L8.36535 47.3985C8.36392 47.3635 8.3621 47.312 8.36061 47.2481C8.35763 47.1199 8.35607 46.9435 8.36159 46.7501C8.37261 46.3641 8.41085 45.9883 8.48397 45.7699L8.48867 45.7653C8.52195 45.7333 8.57682 45.6873 8.65806 45.6274C8.81955 45.5082 9.04907 45.3602 9.33297 45.1906C9.89854 44.8527 10.6422 44.4515 11.4016 44.0584C12.9221 43.2712 14.4679 42.5358 14.7025 42.4334C15.0916 42.2635 15.4706 41.8455 15.6746 41.4004C15.8839 40.9437 15.9783 40.2851 15.4982 39.7545C15.1326 39.3505 14.0367 37.9816 13.557 36.3451C13.3193 35.5338 13.2404 34.682 13.4536 33.8576C13.6646 33.0414 14.1725 32.2095 15.1826 31.4448ZM8.46511 45.7901C8.46505 45.7902 8.46575 45.7892 8.46737 45.7873L8.46511 45.7901ZM25.591 45.7901C25.5911 45.7902 25.5904 45.7892 25.5888 45.7873L25.591 45.7901Z" fill="#101010"/>
<path fill-rule="evenodd" clip-rule="evenodd" d="M44.2949 13.3718C44.3771 13.3096 44.5296 13.2438 44.7587 13.1918C44.9791 13.1419 45.2299 13.1136 45.4739 13.0994C45.6326 13.0902 45.7838 13.0872 45.9154 13.0874C45.9164 13.1011 45.9164 13.1011 45.9164 13.1011L45.9166 13.1011L45.9191 13.1009L45.9312 13.1001C45.9423 13.0994 45.9595 13.0984 45.982 13.0972C46.0205 13.0952 46.0744 13.0928 46.1404 13.0908C46.2063 13.0928 46.2602 13.0952 46.2987 13.0972C46.3212 13.0984 46.3384 13.0994 46.3496 13.1001L46.3617 13.1009L46.3642 13.1011L46.3644 13.1011C46.3643 13.1011 46.3643 13.1011 46.3653 13.0874C46.497 13.0872 46.6482 13.0902 46.8068 13.0994C47.0509 13.1136 47.3016 13.1419 47.5221 13.1918C47.7511 13.2438 47.9037 13.3096 47.9859 13.3718C48.996 14.1365 49.5039 14.9684 49.7149 15.7846C49.928 16.609 49.8492 17.4608 49.6114 18.2721C49.1318 19.9086 48.0358 21.2775 47.6702 21.6815C47.1901 22.2121 47.2846 22.8707 47.4939 23.3274C47.6979 23.7725 48.0769 24.1905 48.466 24.3604C48.7005 24.4628 50.2464 25.1982 51.7669 25.9854C52.5263 26.3785 53.2699 26.7797 53.8355 27.1176C54.1194 27.2872 54.3489 27.4352 54.5104 27.5544C54.5916 27.6143 54.6465 27.6603 54.6798 27.6923L54.6845 27.6969C54.7576 27.9153 54.7958 28.2911 54.8069 28.6771C54.8124 28.8705 54.8108 29.0469 54.8078 29.1751C54.8064 29.239 54.8045 29.2905 54.8031 29.3255L54.8014 29.3651L54.8009 29.3746L54.8008 29.3767L54.8008 29.3769L55.3 29.4043C55.7993 29.4317 55.7993 29.4317 55.7993 29.4316L55.7993 29.4315L55.7993 29.4311L55.7994 29.43L55.7995 29.4263L55.8002 29.4133L55.8023 29.3663C55.8039 29.3261 55.8059 29.2687 55.8076 29.1983C55.8108 29.0579 55.8126 28.8636 55.8065 28.6486C55.7949 28.2444 55.7545 27.6779 55.5981 27.2846C55.5417 27.1427 55.4389 27.0351 55.3739 26.9725C55.2967 26.898 55.2034 26.823 55.1041 26.7497C54.9044 26.6024 54.6431 26.4352 54.3484 26.2591C53.7567 25.9056 52.9919 25.4935 52.2266 25.0973C50.698 24.3059 49.1299 23.5591 48.866 23.4439C48.7568 23.3962 48.5323 23.1931 48.403 22.9108C48.2789 22.6401 48.3101 22.4648 48.4118 22.3525C48.821 21.9002 50.0302 20.3988 50.5711 18.5533C50.8435 17.6236 50.9538 16.5814 50.6831 15.5342C50.4102 14.4788 49.7611 13.4615 48.5894 12.5745L48.5894 12.5744C48.3412 12.3866 48.0275 12.281 47.7431 12.2166C47.4501 12.1502 47.1402 12.1171 46.8648 12.1011C46.5876 12.085 46.3341 12.0856 46.1505 12.0902C46.1471 12.0903 46.1437 12.0904 46.1404 12.0905C46.137 12.0904 46.1337 12.0903 46.1303 12.0902C45.9466 12.0856 45.6932 12.085 45.416 12.1011C45.1406 12.1171 44.8306 12.1502 44.5376 12.2166C44.2532 12.281 43.9396 12.3866 43.6914 12.5744L43.6913 12.5745C42.5196 13.4615 41.8706 14.4788 41.5977 15.5342C41.327 16.5814 41.4372 17.6236 41.7097 18.5533C42.2506 20.3988 43.4597 21.9002 43.869 22.3525C43.9707 22.4648 44.0018 22.6401 43.8778 22.9108C43.7484 23.1931 43.524 23.3962 43.4147 23.4439C43.1509 23.5591 41.5828 24.3059 40.0541 25.0973C39.2889 25.4935 38.5241 25.9056 37.9324 26.2591C37.6377 26.4352 37.3764 26.6024 37.1767 26.7497C37.0774 26.823 36.9841 26.898 36.9068 26.9725C36.8419 27.0351 36.7391 27.1427 36.6826 27.2846C36.5262 27.6779 36.4858 28.2444 36.4743 28.6486C36.4682 28.8636 36.4699 29.0579 36.4732 29.1983C36.4748 29.2687 36.4768 29.3261 36.4785 29.3663L36.4806 29.4133L36.4812 29.4263L36.4814 29.43L36.4815 29.4311L36.4815 29.4315L36.4815 29.4316C36.4815 29.4317 36.4815 29.4317 36.9807 29.4043L37.48 29.3769L37.48 29.3767L37.4799 29.3746L37.4794 29.3651L37.4777 29.3255C37.4762 29.2905 37.4744 29.239 37.4729 29.1751C37.4699 29.0469 37.4684 28.8705 37.4739 28.6771C37.4849 28.2911 37.5232 27.9153 37.5963 27.6969L37.601 27.6923C37.6343 27.6603 37.6891 27.6143 37.7704 27.5544C37.9319 27.4352 38.1614 27.2872 38.4453 27.1176C39.0108 26.7797 39.7545 26.3785 40.5139 25.9854C42.0344 25.1982 43.5802 24.4628 43.8148 24.3604C44.2039 24.1905 44.5829 23.7725 44.7869 23.3274C44.9962 22.8707 45.0906 22.2121 44.6105 21.6815C44.2449 21.2775 43.149 19.9086 42.6693 18.2721C42.4316 17.4608 42.3527 16.609 42.5659 15.7846C42.7769 14.9684 43.2848 14.1365 44.2949 13.3718ZM37.5774 27.7171C37.5774 27.7172 37.5781 27.7162 37.5797 27.7143L37.5774 27.7171ZM54.7034 27.7171C54.7034 27.7172 54.7027 27.7162 54.7011 27.7143L54.7034 27.7171Z" fill="#101010"/>
<path fill-rule="evenodd" clip-rule="evenodd" d="M9.0766 13.3718C9.15881 13.3096 9.31136 13.2438 9.54042 13.1918C9.76087 13.1419 10.0116 13.1136 10.2557 13.0994C10.4143 13.0902 10.5655 13.0872 10.6972 13.0874C10.6982 13.1011 10.6982 13.1011 10.6981 13.1011L10.6983 13.1011L10.7008 13.1009L10.7129 13.1001C10.7241 13.0994 10.7413 13.0984 10.7638 13.0972C10.8023 13.0952 10.8562 13.0928 10.9221 13.0908C10.9881 13.0928 11.042 13.0952 11.0805 13.0972C11.103 13.0984 11.1202 13.0994 11.1313 13.1001L11.1434 13.1009L11.1459 13.1011L11.1461 13.1011C11.1461 13.1011 11.1461 13.1011 11.1471 13.0874C11.2787 13.0872 11.4299 13.0902 11.5886 13.0994C11.8326 13.1136 12.0834 13.1419 12.3038 13.1918C12.5329 13.2438 12.6854 13.3096 12.7676 13.3718C13.7777 14.1365 14.2856 14.9684 14.4966 15.7846C14.7098 16.609 14.6309 17.4608 14.3932 18.2721C13.9135 19.9086 12.8176 21.2775 12.452 21.6815C11.9719 22.2121 12.0663 22.8707 12.2756 23.3274C12.4796 23.7725 12.8586 24.1905 13.2477 24.3604C13.4823 24.4628 15.0281 25.1982 16.5486 25.9854C17.308 26.3785 18.0517 26.7797 18.6172 27.1176C18.9011 27.2872 19.1306 27.4352 19.2921 27.5544C19.3734 27.6143 19.4282 27.6603 19.4615 27.6923L19.4662 27.6969C19.5393 27.9153 19.5776 28.2911 19.5886 28.6771C19.5941 28.8705 19.5926 29.0469 19.5896 29.1751C19.5881 29.239 19.5863 29.2905 19.5848 29.3255L19.5831 29.3651L19.5826 29.3746L19.5825 29.3767L19.5825 29.3769L20.0818 29.4043C20.581 29.4317 20.581 29.4317 20.581 29.4316L20.581 29.4315L20.581 29.4311L20.5811 29.43L20.5813 29.4263L20.5819 29.4133L20.584 29.3663C20.5857 29.3261 20.5877 29.2687 20.5893 29.1983C20.5926 29.0579 20.5943 28.8636 20.5882 28.6486C20.5767 28.2444 20.5363 27.6779 20.3799 27.2846C20.3234 27.1427 20.2206 27.0351 20.1557 26.9725C20.0784 26.898 19.9851 26.823 19.8858 26.7497C19.6861 26.6024 19.4248 26.4352 19.1301 26.2591C18.5384 25.9056 17.7736 25.4935 17.0084 25.0973C15.4797 24.3059 13.9116 23.5591 13.6478 23.4439C13.5385 23.3962 13.3141 23.1931 13.1847 22.9108C13.0607 22.6401 13.0918 22.4648 13.1935 22.3525C13.6028 21.9002 14.8119 20.3988 15.3528 18.5533C15.6253 17.6236 15.7355 16.5814 15.4648 15.5342C15.1919 14.4788 14.5429 13.4615 13.3712 12.5745L13.3711 12.5744C13.1229 12.3866 12.8093 12.281 12.5249 12.2166C12.2319 12.1502 11.9219 12.1171 11.6465 12.1011C11.3693 12.085 11.1159 12.0856 10.9322 12.0902C10.9288 12.0903 10.9255 12.0904 10.9221 12.0905C10.9188 12.0904 10.9154 12.0903 10.912 12.0902C10.7284 12.0856 10.4749 12.085 10.1977 12.1011C9.92232 12.1171 9.61237 12.1502 9.31936 12.2166C9.03496 12.281 8.7213 12.3866 8.47311 12.5744L8.47307 12.5745C7.30137 13.4615 6.65233 14.4788 6.37945 15.5342C6.1087 16.5814 6.21896 17.6236 6.49144 18.5533C7.03232 20.3988 8.24149 21.9002 8.65075 22.3525C8.75239 22.4648 8.78357 22.6401 8.65952 22.9108C8.53017 23.1931 8.30575 23.3962 8.19646 23.4439C7.93259 23.5591 6.36453 24.3059 4.83585 25.0973C4.0706 25.4935 3.30582 25.9056 2.71414 26.2591C2.41941 26.4352 2.1581 26.6024 1.95843 26.7497C1.85909 26.823 1.7658 26.898 1.68857 26.9725C1.62364 27.0351 1.52082 27.1427 1.46438 27.2846C1.30796 27.6779 1.26758 28.2444 1.25604 28.6486C1.2499 28.8636 1.25166 29.0579 1.25492 29.1983C1.25656 29.2687 1.25858 29.3261 1.26022 29.3663L1.2623 29.4133L1.26295 29.4263L1.26314 29.43L1.2632 29.4311L1.26323 29.4315L1.26323 29.4316C1.26324 29.4317 1.26324 29.4317 1.76249 29.4043L2.26174 29.3769L2.26172 29.3767L2.26162 29.3746L2.26114 29.3651L2.25939 29.3255C2.25796 29.2905 2.25614 29.239 2.25465 29.1751C2.25168 29.0469 2.25011 28.8705 2.25563 28.6771C2.26665 28.2911 2.30489 27.9153 2.37801 27.6969L2.38272 27.6923C2.416 27.6603 2.47087 27.6143 2.5521 27.5544C2.71359 27.4352 2.94311 27.2872 3.22701 27.1176C3.79258 26.7797 4.53624 26.3785 5.29559 25.9854C6.81614 25.1982 8.36196 24.4628 8.59652 24.3604C8.98565 24.1905 9.36462 23.7725 9.56861 23.3274C9.7779 22.8707 9.87238 22.2121 9.39225 21.6815C9.02666 21.2775 7.9307 19.9086 7.45107 18.2721C7.2133 17.4608 7.13445 16.609 7.34761 15.7846C7.55864 14.9684 8.06652 14.1365 9.0766 13.3718ZM2.35915 27.7171C2.35909 27.7172 2.35979 27.7162 2.36142 27.7143L2.35915 27.7171ZM19.4851 27.7171C19.4851 27.7172 19.4844 27.7162 19.4828 27.7143L19.4851 27.7171Z" fill="#101010"/>
<path fill-rule="evenodd" clip-rule="evenodd" d="M26.7587 1.64865C26.8409 1.58643 26.9935 1.52061 27.2225 1.4687C27.443 1.41873 27.6938 1.39042 27.9378 1.37626C28.0965 1.36705 28.2476 1.36407 28.3793 1.36427C28.3803 1.37797 28.3803 1.37797 28.3803 1.37797L28.3804 1.37796L28.3829 1.37779L28.3951 1.37698C28.4062 1.37627 28.4234 1.37524 28.4459 1.37406C28.4844 1.37205 28.5383 1.36963 28.6042 1.3677C28.6702 1.36963 28.7241 1.37205 28.7626 1.37406C28.7851 1.37524 28.8023 1.37627 28.8134 1.37698L28.8256 1.37779L28.8281 1.37796L28.8282 1.37797C28.8282 1.37797 28.8282 1.37797 28.8292 1.36427C28.9609 1.36408 29.112 1.36705 29.2707 1.37626C29.5147 1.39042 29.7655 1.41873 29.986 1.4687C30.215 1.52061 30.3676 1.58643 30.4498 1.64865C31.4599 2.41333 31.9677 3.24524 32.1788 4.06143C32.3919 4.88587 32.3131 5.73763 32.0753 6.54892C31.5957 8.18542 30.4997 9.55434 30.1341 9.95838C29.654 10.489 29.7485 11.1475 29.9578 11.6042C30.1617 12.0494 30.5407 12.4674 30.9298 12.6372C31.1644 12.7396 32.7102 13.4751 34.2308 14.2622C34.9901 14.6554 35.7338 15.0566 36.2994 15.3945C36.5833 15.5641 36.8128 15.7121 36.9743 15.8312C37.0555 15.8912 37.1104 15.9371 37.1437 15.9692L37.1484 15.9738C37.2215 16.1921 37.2597 16.568 37.2707 16.954C37.2763 17.1474 37.2747 17.3238 37.2717 17.452C37.2702 17.5159 37.2684 17.5673 37.267 17.6023L37.2652 17.6419L37.2647 17.6515L37.2646 17.6535L37.2646 17.6538L37.7639 17.6811C38.2631 17.7086 38.2631 17.7085 38.2631 17.7085L38.2631 17.7083L38.2632 17.7079L38.2632 17.7068L38.2634 17.7031L38.2641 17.6901L38.2661 17.6431C38.2678 17.6029 38.2698 17.5456 38.2714 17.4752C38.2747 17.3348 38.2765 17.1405 38.2703 16.9255C38.2588 16.5212 38.2184 15.9548 38.062 15.5615C38.0055 15.4196 37.9027 15.312 37.8378 15.2494C37.7606 15.1749 37.6673 15.0998 37.5679 15.0265C37.3683 14.8792 37.107 14.7121 36.8122 14.536C36.2205 14.1825 35.4558 13.7704 34.6905 13.3742C33.1618 12.5828 31.5938 11.8359 31.3299 11.7208C31.2206 11.673 30.9962 11.4699 30.8668 11.1877C30.7428 10.9169 30.774 10.7417 30.8756 10.6293C31.2849 10.177 32.494 8.6757 33.0349 6.83018C33.3074 5.90046 33.4177 4.85828 33.1469 3.8111C32.874 2.75568 32.225 1.73832 31.0533 0.851318L31.0533 0.851285C30.8051 0.663443 30.4914 0.557897 30.207 0.493434C29.914 0.427019 29.604 0.393923 29.3287 0.377941C29.0515 0.361854 28.798 0.362504 28.6144 0.367066C28.611 0.36715 28.6076 0.367236 28.6042 0.367323C28.6009 0.367236 28.5975 0.36715 28.5941 0.367066C28.4105 0.362504 28.157 0.361854 27.8798 0.377941C27.6044 0.393923 27.2945 0.427019 27.0015 0.493434C26.7171 0.557897 26.4034 0.663443 26.1552 0.851285L26.1552 0.851318C24.9835 1.73832 24.3345 2.75568 24.0616 3.8111C23.7908 4.85828 23.9011 5.90046 24.1736 6.83018C24.7145 8.6757 25.9236 10.177 26.3329 10.6293C26.4345 10.7417 26.4657 10.9169 26.3416 11.1877C26.2123 11.4699 25.9879 11.673 25.8786 11.7208C25.6147 11.8359 24.0467 12.5828 22.518 13.3742C21.7527 13.7704 20.988 14.1825 20.3963 14.536C20.1015 14.7121 19.8402 14.8792 19.6406 15.0265C19.5412 15.0998 19.4479 15.1749 19.3707 15.2494C19.3058 15.312 19.203 15.4196 19.1465 15.5615C18.9901 15.9548 18.9497 16.5212 18.9382 16.9255C18.932 17.1405 18.9338 17.3348 18.9371 17.4752C18.9387 17.5456 18.9407 17.6029 18.9424 17.6431L18.9444 17.6901L18.9451 17.7031L18.9453 17.7068L18.9453 17.7079L18.9454 17.7083L18.9454 17.7085C18.9454 17.7085 18.9454 17.7086 19.4446 17.6811L19.9439 17.6538L19.9439 17.6535L19.9437 17.6515L19.9433 17.6419L19.9415 17.6023C19.9401 17.5673 19.9383 17.5159 19.9368 17.452C19.9338 17.3238 19.9322 17.1474 19.9378 16.954C19.9488 16.568 19.987 16.1921 20.0601 15.9738L20.0648 15.9692C20.0981 15.9371 20.153 15.8912 20.2342 15.8312C20.3957 15.7121 20.6252 15.5641 20.9091 15.3945C21.4747 15.0566 22.2184 14.6554 22.9777 14.2622C24.4983 13.4751 26.0441 12.7396 26.2786 12.6372C26.6678 12.4674 27.0468 12.0494 27.2507 11.6042C27.46 11.1475 27.5545 10.489 27.0744 9.95838C26.7088 9.55434 25.6128 8.18542 25.1332 6.54892C24.8954 5.73763 24.8166 4.88587 25.0297 4.06143C25.2408 3.24524 25.7486 2.41333 26.7587 1.64865ZM20.0413 15.994C20.0412 15.994 20.0419 15.9931 20.0435 15.9912L20.0413 15.994ZM37.1672 15.994C37.1673 15.994 37.1666 15.9931 37.165 15.9912L37.1672 15.994Z" fill="#101010"/>
<path d="M41.7035 37.4364H48.8535C49.4869 37.4364 49.8035 37.7697 49.8035 38.4364V40.5364C49.8035 41.1697 49.4869 41.4864 48.8535 41.4864H41.7035V48.7364C41.7035 49.403 41.3702 49.7364 40.7035 49.7364H38.4535C37.8202 49.7364 37.5035 49.403 37.5035 48.7364V41.4864H30.3035C29.6702 41.4864 29.3535 41.1697 29.3535 40.5364V38.4364C29.3535 37.7697 29.6702 37.4364 30.3035 37.4364H37.5035V30.2364C37.5035 29.5697 37.8202 29.2364 38.4535 29.2364H40.7035C41.3702 29.2364 41.7035 29.5697 41.7035 30.2364V37.4364Z" fill="#101010"/>
</g>
<defs>
<clipPath id="clip0_389_2781">
<rect width="55" height="50" fill="white" transform="translate(0.983887 0.0161133)"/>
</clipPath>
</defs>
</svg>
