<svg width="55" height="48" viewBox="0 0 55 48" fill="none" xmlns="http://www.w3.org/2000/svg">
<path fill-rule="evenodd" clip-rule="evenodd" d="M14.1826 31.8833C14.2648 31.821 14.4173 31.7552 14.6464 31.7033C14.8668 31.6533 15.1176 31.625 15.3616 31.6109C15.5203 31.6017 15.6715 31.5987 15.8031 31.5989C15.8041 31.6126 15.8041 31.6126 15.8041 31.6126L15.8043 31.6126L15.8068 31.6124L15.8189 31.6116C15.83 31.6109 15.8472 31.6099 15.8697 31.6087C15.9082 31.6067 15.9621 31.6043 16.0281 31.6023C16.094 31.6043 16.1479 31.6067 16.1864 31.6087C16.2089 31.6099 16.2261 31.6109 16.2373 31.6116L16.2494 31.6124L16.2519 31.6126L16.252 31.6126C16.252 31.6126 16.252 31.6126 16.253 31.5989C16.3847 31.5987 16.5358 31.6017 16.6945 31.6109C16.9386 31.625 17.1893 31.6533 17.4098 31.7033C17.6388 31.7552 17.7914 31.821 17.8736 31.8833C18.8837 32.6479 19.3916 33.4799 19.6026 34.296C19.8157 35.1205 19.7369 35.9722 19.4991 36.7835C19.0195 38.42 17.9235 39.789 17.5579 40.193C17.0778 40.7236 17.1723 41.3821 17.3816 41.8389C17.5856 42.284 17.9645 42.702 18.3537 42.8719C18.5882 42.9743 20.1341 43.7097 21.6546 44.4969C22.4139 44.89 23.1576 45.2912 23.7232 45.6291C24.0071 45.7987 24.2366 45.9467 24.3981 46.0659C24.4793 46.1258 24.5342 46.1717 24.5675 46.2038L24.5722 46.2084C24.6453 46.4267 24.6835 46.8026 24.6946 47.1886C24.7001 47.382 24.6985 47.5584 24.6955 47.6866C24.6941 47.7505 24.6922 47.8019 24.6908 47.837L24.6891 47.8766L24.6886 47.8861L24.6885 47.8882L24.6885 47.8884L25.1877 47.9158C25.687 47.9432 25.687 47.9431 25.687 47.9431L25.687 47.9429L25.687 47.9426L25.6871 47.9414L25.6872 47.9377L25.6879 47.9247L25.69 47.8777C25.6916 47.8375 25.6936 47.7802 25.6953 47.7098C25.6985 47.5694 25.7003 47.3751 25.6942 47.1601C25.6826 46.7559 25.6422 46.1894 25.4858 45.7961C25.4294 45.6542 25.3266 45.5466 25.2616 45.484C25.1844 45.4095 25.0911 45.3344 24.9918 45.2611C24.7921 45.1138 24.5308 44.9467 24.2361 44.7706C23.6444 44.4171 22.8796 44.005 22.1143 43.6088C20.5857 42.8174 19.0176 42.0706 18.7537 41.9554C18.6444 41.9077 18.42 41.7046 18.2907 41.4223C18.1666 41.1516 18.1978 40.9763 18.2994 40.8639C18.7087 40.4116 19.9179 38.9103 20.4588 37.0648C20.7312 36.1351 20.8415 35.0929 20.5707 34.0457C20.2979 32.9903 19.6488 31.9729 18.4771 31.0859L18.4771 31.0859C18.2289 30.8981 17.9152 30.7925 17.6308 30.7281C17.3378 30.6616 17.0279 30.6285 16.7525 30.6126C16.4753 30.5965 16.2218 30.5971 16.0382 30.6017C16.0348 30.6018 16.0314 30.6019 16.0281 30.6019C16.0247 30.6019 16.0213 30.6018 16.018 30.6017C15.8343 30.5971 15.5809 30.5965 15.3037 30.6126C15.0283 30.6285 14.7183 30.6616 14.4253 30.7281C14.1409 30.7925 13.8273 30.8981 13.5791 31.0859L13.579 31.0859C12.4073 31.9729 11.7583 32.9903 11.4854 34.0457C11.2147 35.0929 11.3249 36.1351 11.5974 37.0648C12.1383 38.9103 13.3474 40.4116 13.7567 40.8639C13.8583 40.9763 13.8895 41.1516 13.7655 41.4223C13.6361 41.7046 13.4117 41.9077 13.3024 41.9554C13.0385 42.0706 11.4705 42.8174 9.94181 43.6088C9.17655 44.005 8.41178 44.4171 7.8201 44.7706C7.52537 44.9467 7.26406 45.1138 7.06439 45.2611C6.96505 45.3344 6.87176 45.4095 6.79453 45.484C6.72959 45.5466 6.62678 45.6542 6.57034 45.7961C6.41392 46.1894 6.37354 46.7559 6.362 47.1601C6.35586 47.3751 6.35762 47.5694 6.36088 47.7098C6.36252 47.7802 6.36454 47.8375 6.36618 47.8777L6.36826 47.9247L6.36891 47.9377L6.3691 47.9414L6.36916 47.9426L6.36918 47.9429L6.36919 47.9431C6.36919 47.9431 6.3692 47.9432 6.86844 47.9158L7.36769 47.8884L7.36768 47.8882L7.36757 47.8861L7.3671 47.8766L7.36535 47.837C7.36392 47.8019 7.3621 47.7505 7.36061 47.6866C7.35763 47.5584 7.35607 47.382 7.36159 47.1886C7.37261 46.8026 7.41085 46.4267 7.48397 46.2084L7.48867 46.2038C7.52195 46.1717 7.57682 46.1258 7.65806 46.0659C7.81955 45.9467 8.04907 45.7987 8.33297 45.6291C8.89854 45.2912 9.6422 44.89 10.4016 44.4969C11.9221 43.7097 13.4679 42.9743 13.7025 42.8719C14.0916 42.702 14.4706 42.284 14.6746 41.8389C14.8839 41.3821 14.9783 40.7236 14.4982 40.193C14.1326 39.789 13.0367 38.42 12.557 36.7835C12.3193 35.9722 12.2404 35.1205 12.4536 34.296C12.6646 33.4799 13.1725 32.6479 14.1826 31.8833ZM7.46511 46.2286C7.46505 46.2286 7.46575 46.2277 7.46737 46.2258L7.46511 46.2286ZM24.591 46.2286C24.5911 46.2286 24.5904 46.2277 24.5888 46.2258L24.591 46.2286Z" fill="white"/>
<path fill-rule="evenodd" clip-rule="evenodd" d="M36.9936 31.8833C37.0758 31.821 37.2284 31.7552 37.4574 31.7033C37.6779 31.6533 37.9286 31.625 38.1726 31.6109C38.3313 31.6017 38.4825 31.5987 38.6142 31.5989C38.6152 31.6126 38.6152 31.6126 38.6151 31.6126L38.6153 31.6126L38.6178 31.6124L38.6299 31.6116C38.6411 31.6109 38.6583 31.6099 38.6808 31.6087C38.7193 31.6067 38.7732 31.6043 38.8391 31.6023C38.9051 31.6043 38.959 31.6067 38.9974 31.6087C39.02 31.6099 39.0371 31.6109 39.0483 31.6116L39.0604 31.6124L39.0629 31.6126L39.0631 31.6126C39.0631 31.6126 39.063 31.6126 39.064 31.5989C39.1957 31.5987 39.3469 31.6017 39.5056 31.6109C39.7496 31.625 40.0004 31.6533 40.2208 31.7033C40.4499 31.7552 40.6024 31.821 40.6846 31.8833C41.6947 32.6479 42.2026 33.4799 42.4136 34.296C42.6268 35.1205 42.5479 35.9722 42.3102 36.7835C41.8305 38.42 40.7346 39.789 40.369 40.193C39.8888 40.7236 39.9833 41.3821 40.1926 41.8389C40.3966 42.284 40.7756 42.702 41.1647 42.8719C41.3993 42.9743 42.9451 43.7097 44.4656 44.4969C45.225 44.89 45.9687 45.2912 46.5342 45.6291C46.8181 45.7987 47.0476 45.9467 47.2091 46.0659C47.2904 46.1258 47.3452 46.1717 47.3785 46.2038L47.3832 46.2084C47.4563 46.4267 47.4946 46.8026 47.5056 47.1886C47.5111 47.382 47.5096 47.5584 47.5066 47.6866C47.5051 47.7505 47.5033 47.8019 47.5018 47.837L47.5001 47.8766L47.4996 47.8861L47.4995 47.8882L47.4995 47.8884L47.9987 47.9158C48.498 47.9432 48.498 47.9431 48.498 47.9431L48.498 47.9429L48.498 47.9426L48.4981 47.9414L48.4983 47.9377L48.4989 47.9247L48.501 47.8777C48.5026 47.8375 48.5047 47.7802 48.5063 47.7098C48.5096 47.5694 48.5113 47.3751 48.5052 47.1601C48.4937 46.7559 48.4533 46.1894 48.2968 45.7961C48.2404 45.6542 48.1376 45.5466 48.0727 45.484C47.9954 45.4095 47.9021 45.3344 47.8028 45.2611C47.6031 45.1138 47.3418 44.9467 47.0471 44.7706C46.4554 44.4171 45.6906 44.005 44.9254 43.6088C43.3967 42.8174 41.8286 42.0706 41.5648 41.9554C41.4555 41.9077 41.2311 41.7046 41.1017 41.4223C40.9777 41.1516 41.0088 40.9763 41.1105 40.8639C41.5197 40.4116 42.7289 38.9103 43.2698 37.0648C43.5423 36.1351 43.6525 35.0929 43.3818 34.0457C43.1089 32.9903 42.4599 31.9729 41.2882 31.0859L41.2881 31.0859C41.0399 30.8981 40.7263 30.7925 40.4419 30.7281C40.1489 30.6616 39.8389 30.6285 39.5635 30.6126C39.2863 30.5965 39.0329 30.5971 38.8492 30.6017C38.8458 30.6018 38.8425 30.6019 38.8391 30.6019C38.8358 30.6019 38.8324 30.6018 38.829 30.6017C38.6454 30.5971 38.3919 30.5965 38.1147 30.6126C37.8393 30.6285 37.5294 30.6616 37.2364 30.7281C36.952 30.7925 36.6383 30.8981 36.3901 31.0859L36.3901 31.0859C35.2184 31.9729 34.5693 32.9903 34.2964 34.0457C34.0257 35.0929 34.1359 36.1351 34.4084 37.0648C34.9493 38.9103 36.1585 40.4116 36.5677 40.8639C36.6694 40.9763 36.7006 41.1516 36.5765 41.4223C36.4472 41.7046 36.2227 41.9077 36.1134 41.9554C35.8496 42.0706 34.2815 42.8174 32.7528 43.6088C31.9876 44.005 31.2228 44.4171 30.6311 44.7706C30.3364 44.9467 30.0751 45.1138 29.8754 45.2611C29.7761 45.3344 29.6828 45.4095 29.6056 45.484C29.5406 45.5466 29.4378 45.6542 29.3814 45.7961C29.225 46.1894 29.1846 46.7559 29.173 47.1601C29.1669 47.3751 29.1687 47.5694 29.1719 47.7098C29.1736 47.7802 29.1756 47.8375 29.1772 47.8777L29.1793 47.9247L29.1799 47.9377L29.1801 47.9414L29.1802 47.9426L29.1802 47.9429L29.1802 47.9431C29.1802 47.9431 29.1802 47.9432 29.6795 47.9158L30.1787 47.8884L30.1787 47.8882L30.1786 47.8861L30.1781 47.8766L30.1764 47.837C30.175 47.8019 30.1731 47.7505 30.1716 47.6866C30.1687 47.5584 30.1671 47.382 30.1726 47.1886C30.1836 46.8026 30.2219 46.4267 30.295 46.2084L30.2997 46.2038C30.333 46.1717 30.3879 46.1258 30.4691 46.0659C30.6306 45.9467 30.8601 45.7987 31.144 45.6291C31.7096 45.2912 32.4532 44.89 33.2126 44.4969C34.7331 43.7097 36.279 42.9743 36.5135 42.8719C36.9026 42.702 37.2816 42.284 37.4856 41.8389C37.6949 41.3821 37.7894 40.7236 37.3092 40.193C36.9437 39.789 35.8477 38.42 35.3681 36.7835C35.1303 35.9722 35.0514 35.1205 35.2646 34.296C35.4756 33.4799 35.9835 32.6479 36.9936 31.8833ZM30.2761 46.2286C30.2761 46.2286 30.2768 46.2277 30.2784 46.2258L30.2761 46.2286ZM47.4021 46.2286C47.4021 46.2286 47.4014 46.2277 47.3998 46.2258L47.4021 46.2286Z" fill="white"/>
<path fill-rule="evenodd" clip-rule="evenodd" d="M43.2949 13.8103C43.3771 13.7481 43.5296 13.6822 43.7587 13.6303C43.9791 13.5803 44.2299 13.552 44.4739 13.5379C44.6326 13.5287 44.7838 13.5257 44.9154 13.5259C44.9164 13.5396 44.9164 13.5396 44.9164 13.5396L44.9166 13.5396L44.9191 13.5394L44.9312 13.5386C44.9423 13.5379 44.9595 13.5369 44.982 13.5357C45.0205 13.5337 45.0744 13.5313 45.1404 13.5293C45.2063 13.5313 45.2602 13.5337 45.2987 13.5357C45.3212 13.5369 45.3384 13.5379 45.3496 13.5386L45.3617 13.5394L45.3642 13.5396L45.3644 13.5396C45.3643 13.5396 45.3643 13.5396 45.3653 13.5259C45.497 13.5257 45.6482 13.5287 45.8068 13.5379C46.0509 13.552 46.3016 13.5803 46.5221 13.6303C46.7511 13.6822 46.9037 13.7481 46.9859 13.8103C47.996 14.5749 48.5039 15.4069 48.7149 16.223C48.928 17.0475 48.8492 17.8993 48.6114 18.7105C48.1318 20.347 47.0358 21.716 46.6702 22.12C46.1901 22.6506 46.2846 23.3091 46.4939 23.7659C46.6979 24.211 47.0769 24.629 47.466 24.7989C47.7005 24.9013 49.2464 25.6367 50.7669 26.4239C51.5263 26.817 52.2699 27.2182 52.8355 27.5561C53.1194 27.7257 53.3489 27.8737 53.5104 27.9929C53.5916 28.0528 53.6465 28.0987 53.6798 28.1308L53.6845 28.1354C53.7576 28.3537 53.7958 28.7296 53.8069 29.1156C53.8124 29.309 53.8108 29.4854 53.8078 29.6136C53.8064 29.6775 53.8045 29.7289 53.8031 29.764L53.8014 29.8036L53.8009 29.8131L53.8008 29.8152L53.8008 29.8154L54.3 29.8428C54.7993 29.8702 54.7993 29.8702 54.7993 29.8701L54.7993 29.8699L54.7993 29.8696L54.7994 29.8684L54.7995 29.8647L54.8002 29.8517L54.8023 29.8047C54.8039 29.7645 54.8059 29.7072 54.8076 29.6368C54.8108 29.4964 54.8126 29.3021 54.8065 29.0871C54.7949 28.6829 54.7545 28.1164 54.5981 27.7231C54.5417 27.5812 54.4389 27.4736 54.3739 27.411C54.2967 27.3365 54.2034 27.2614 54.1041 27.1881C53.9044 27.0408 53.6431 26.8737 53.3484 26.6976C52.7567 26.3441 51.9919 25.932 51.2266 25.5358C49.698 24.7444 48.1299 23.9976 47.866 23.8824C47.7568 23.8347 47.5323 23.6316 47.403 23.3493C47.2789 23.0786 47.3101 22.9033 47.4118 22.7909C47.821 22.3386 49.0302 20.8373 49.5711 18.9918C49.8435 18.0621 49.9538 17.0199 49.6831 15.9727C49.4102 14.9173 48.7611 13.8999 47.5894 13.0129L47.5894 13.0129C47.3412 12.8251 47.0275 12.7195 46.7431 12.6551C46.4501 12.5886 46.1402 12.5555 45.8648 12.5396C45.5876 12.5235 45.3341 12.5241 45.1505 12.5287C45.1471 12.5288 45.1437 12.5289 45.1404 12.5289C45.137 12.5289 45.1337 12.5288 45.1303 12.5287C44.9466 12.5241 44.6932 12.5235 44.416 12.5396C44.1406 12.5555 43.8306 12.5886 43.5376 12.6551C43.2532 12.7195 42.9396 12.8251 42.6914 13.0129L42.6913 13.0129C41.5196 13.8999 40.8706 14.9173 40.5977 15.9727C40.327 17.0199 40.4372 18.0621 40.7097 18.9918C41.2506 20.8373 42.4597 22.3386 42.869 22.7909C42.9707 22.9033 43.0018 23.0786 42.8778 23.3493C42.7484 23.6316 42.524 23.8347 42.4147 23.8824C42.1509 23.9976 40.5828 24.7444 39.0541 25.5358C38.2889 25.932 37.5241 26.3441 36.9324 26.6976C36.6377 26.8737 36.3764 27.0408 36.1767 27.1881C36.0774 27.2614 35.9841 27.3365 35.9068 27.411C35.8419 27.4736 35.7391 27.5812 35.6826 27.7231C35.5262 28.1164 35.4858 28.6829 35.4743 29.0871C35.4682 29.3021 35.4699 29.4964 35.4732 29.6368C35.4748 29.7072 35.4768 29.7645 35.4785 29.8047L35.4806 29.8517L35.4812 29.8647L35.4814 29.8684L35.4815 29.8696L35.4815 29.8699L35.4815 29.8701C35.4815 29.8702 35.4815 29.8702 35.9807 29.8428L36.48 29.8154L36.48 29.8152L36.4799 29.8131L36.4794 29.8036L36.4777 29.764C36.4762 29.7289 36.4744 29.6775 36.4729 29.6136C36.4699 29.4854 36.4684 29.309 36.4739 29.1156C36.4849 28.7296 36.5232 28.3537 36.5963 28.1354L36.601 28.1308C36.6343 28.0987 36.6891 28.0528 36.7704 27.9929C36.9319 27.8737 37.1614 27.7257 37.4453 27.5561C38.0108 27.2182 38.7545 26.817 39.5139 26.4239C41.0344 25.6367 42.5802 24.9013 42.8148 24.7989C43.2039 24.629 43.5829 24.211 43.7869 23.7659C43.9962 23.3091 44.0906 22.6506 43.6105 22.12C43.2449 21.716 42.149 20.347 41.6693 18.7105C41.4316 17.8993 41.3527 17.0475 41.5659 16.223C41.7769 15.4069 42.2848 14.5749 43.2949 13.8103ZM36.5774 28.1556C36.5774 28.1556 36.5781 28.1547 36.5797 28.1528L36.5774 28.1556ZM53.7034 28.1556C53.7034 28.1556 53.7027 28.1547 53.7011 28.1528L53.7034 28.1556Z" fill="white"/>
<path fill-rule="evenodd" clip-rule="evenodd" d="M8.0766 13.8103C8.15881 13.7481 8.31136 13.6822 8.54042 13.6303C8.76087 13.5803 9.01164 13.552 9.25565 13.5379C9.41435 13.5287 9.56551 13.5257 9.69718 13.5259C9.69818 13.5396 9.69816 13.5396 9.69815 13.5396L9.69831 13.5396L9.70081 13.5394L9.71293 13.5386C9.72408 13.5379 9.74126 13.5369 9.76378 13.5357C9.80227 13.5337 9.85617 13.5313 9.92212 13.5293C9.98807 13.5313 10.042 13.5337 10.0805 13.5357C10.103 13.5369 10.1202 13.5379 10.1313 13.5386L10.1434 13.5394L10.1459 13.5396L10.1461 13.5396C10.1461 13.5396 10.1461 13.5396 10.1471 13.5259C10.2787 13.5257 10.4299 13.5287 10.5886 13.5379C10.8326 13.552 11.0834 13.5803 11.3038 13.6303C11.5329 13.6822 11.6854 13.7481 11.7676 13.8103C12.7777 14.5749 13.2856 15.4069 13.4966 16.223C13.7098 17.0475 13.6309 17.8993 13.3932 18.7105C12.9135 20.347 11.8176 21.716 11.452 22.12C10.9719 22.6506 11.0663 23.3091 11.2756 23.7659C11.4796 24.211 11.8586 24.629 12.2477 24.7989C12.4823 24.9013 14.0281 25.6367 15.5486 26.4239C16.308 26.817 17.0517 27.2182 17.6172 27.5561C17.9011 27.7257 18.1306 27.8737 18.2921 27.9929C18.3734 28.0528 18.4282 28.0987 18.4615 28.1308L18.4662 28.1354C18.5393 28.3537 18.5776 28.7296 18.5886 29.1156C18.5941 29.309 18.5926 29.4854 18.5896 29.6136C18.5881 29.6775 18.5863 29.7289 18.5848 29.764L18.5831 29.8036L18.5826 29.8131L18.5825 29.8152L18.5825 29.8154L19.0818 29.8428C19.581 29.8702 19.581 29.8702 19.581 29.8701L19.581 29.8699L19.581 29.8696L19.5811 29.8684L19.5813 29.8647L19.5819 29.8517L19.584 29.8047C19.5857 29.7645 19.5877 29.7072 19.5893 29.6368C19.5926 29.4964 19.5943 29.3021 19.5882 29.0871C19.5767 28.6829 19.5363 28.1164 19.3799 27.7231C19.3234 27.5812 19.2206 27.4736 19.1557 27.411C19.0784 27.3365 18.9851 27.2614 18.8858 27.1881C18.6861 27.0408 18.4248 26.8737 18.1301 26.6976C17.5384 26.3441 16.7736 25.932 16.0084 25.5358C14.4797 24.7444 12.9116 23.9976 12.6478 23.8824C12.5385 23.8347 12.3141 23.6316 12.1847 23.3493C12.0607 23.0786 12.0918 22.9033 12.1935 22.7909C12.6028 22.3386 13.8119 20.8373 14.3528 18.9918C14.6253 18.0621 14.7355 17.0199 14.4648 15.9727C14.1919 14.9173 13.5429 13.8999 12.3712 13.0129L12.3711 13.0129C12.1229 12.8251 11.8093 12.7195 11.5249 12.6551C11.2319 12.5886 10.9219 12.5555 10.6465 12.5396C10.3693 12.5235 10.1159 12.5241 9.93224 12.5287C9.92885 12.5288 9.92547 12.5289 9.92212 12.5289C9.91877 12.5289 9.91539 12.5288 9.91199 12.5287C9.72836 12.5241 9.47491 12.5235 9.19772 12.5396C8.92232 12.5555 8.61237 12.5886 8.31936 12.6551C8.03496 12.7195 7.7213 12.8251 7.47311 13.0129L7.47307 13.0129C6.30137 13.8999 5.65233 14.9173 5.37945 15.9727C5.1087 17.0199 5.21896 18.0621 5.49144 18.9918C6.03232 20.8373 7.24149 22.3386 7.65075 22.7909C7.75239 22.9033 7.78357 23.0786 7.65952 23.3493C7.53017 23.6316 7.30575 23.8347 7.19646 23.8824C6.93259 23.9976 5.36453 24.7444 3.83585 25.5358C3.0706 25.932 2.30582 26.3441 1.71414 26.6976C1.41941 26.8737 1.1581 27.0408 0.958434 27.1881C0.859089 27.2614 0.765801 27.3365 0.688574 27.411C0.623636 27.4736 0.520823 27.5812 0.464383 27.7231C0.307964 28.1164 0.267579 28.6829 0.25604 29.0871C0.249902 29.3021 0.251663 29.4964 0.254924 29.6368C0.25656 29.7072 0.258584 29.7645 0.260223 29.8047L0.262303 29.8517L0.26295 29.8647L0.263144 29.8684L0.263205 29.8696L0.263226 29.8699L0.263234 29.8701C0.263237 29.8702 0.26324 29.8702 0.762486 29.8428L1.26174 29.8154L1.26172 29.8152L1.26162 29.8131L1.26114 29.8036L1.25939 29.764C1.25796 29.7289 1.25614 29.6775 1.25465 29.6136C1.25168 29.4854 1.25011 29.309 1.25563 29.1156C1.26665 28.7296 1.30489 28.3537 1.37801 28.1354L1.38272 28.1308C1.416 28.0987 1.47087 28.0528 1.5521 27.9929C1.71359 27.8737 1.94311 27.7257 2.22701 27.5561C2.79258 27.2182 3.53624 26.817 4.29559 26.4239C5.81614 25.6367 7.36196 24.9013 7.59652 24.7989C7.98565 24.629 8.36462 24.211 8.56861 23.7659C8.7779 23.3091 8.87238 22.6506 8.39225 22.12C8.02666 21.716 6.9307 20.347 6.45107 18.7105C6.2133 17.8993 6.13445 17.0475 6.34761 16.223C6.55864 15.4069 7.06652 14.5749 8.0766 13.8103ZM1.35915 28.1556C1.35909 28.1556 1.35979 28.1547 1.36142 28.1528L1.35915 28.1556ZM18.4851 28.1556C18.4851 28.1556 18.4844 28.1547 18.4828 28.1528L18.4851 28.1556Z" fill="white"/>
<path fill-rule="evenodd" clip-rule="evenodd" d="M25.7587 2.08713C25.8409 2.02491 25.9935 1.95909 26.2225 1.90717C26.443 1.8572 26.6938 1.8289 26.9378 1.81474C27.0965 1.80553 27.2476 1.80255 27.3793 1.80274C27.3803 1.81645 27.3803 1.81645 27.3803 1.81645L27.3804 1.81644L27.3829 1.81626L27.3951 1.81546C27.4062 1.81475 27.4234 1.81371 27.4459 1.81254C27.4844 1.81053 27.5383 1.80811 27.6042 1.80618C27.6702 1.80811 27.7241 1.81053 27.7626 1.81254C27.7851 1.81371 27.8023 1.81475 27.8134 1.81546L27.8256 1.81626L27.8281 1.81644L27.8282 1.81645C27.8282 1.81645 27.8282 1.81645 27.8292 1.80274C27.9609 1.80255 28.112 1.80553 28.2707 1.81474C28.5147 1.8289 28.7655 1.8572 28.986 1.90717C29.215 1.95909 29.3676 2.02491 29.4498 2.08713C30.4599 2.85181 30.9677 3.68372 31.1788 4.4999C31.3919 5.32434 31.3131 6.17611 31.0753 6.9874C30.5957 8.62389 29.4997 9.99282 29.1341 10.3969C28.654 10.9275 28.7485 11.586 28.9578 12.0427C29.1617 12.4879 29.5407 12.9059 29.9298 13.0757C30.1644 13.1781 31.7102 13.9135 33.2308 14.7007C33.9901 15.0938 34.7338 15.495 35.2994 15.8329C35.5833 16.0025 35.8128 16.1506 35.9743 16.2697C36.0555 16.3296 36.1104 16.3756 36.1437 16.4077L36.1484 16.4123C36.2215 16.6306 36.2597 17.0065 36.2707 17.3925C36.2763 17.5858 36.2747 17.7622 36.2717 17.8904C36.2702 17.9543 36.2684 18.0058 36.267 18.0408L36.2652 18.0804L36.2647 18.09L36.2646 18.092L36.2646 18.0923L36.7639 18.1196C37.2631 18.1471 37.2631 18.147 37.2631 18.1469L37.2631 18.1468L37.2632 18.1464L37.2632 18.1453L37.2634 18.1416L37.2641 18.1286L37.2661 18.0816C37.2678 18.0414 37.2698 17.9841 37.2714 17.9137C37.2747 17.7732 37.2765 17.5789 37.2703 17.3639C37.2588 16.9597 37.2184 16.3932 37.062 16C37.0055 15.8581 36.9027 15.7505 36.8378 15.6878C36.7606 15.6134 36.6673 15.5383 36.5679 15.465C36.3683 15.3177 36.107 15.1505 35.8122 14.9745C35.2205 14.621 34.4558 14.2088 33.6905 13.8127C32.1618 13.0213 30.5938 12.2744 30.3299 12.1592C30.2206 12.1115 29.9962 11.9084 29.8668 11.6261C29.7428 11.3554 29.774 11.1801 29.8756 11.0678C30.2849 10.6155 31.494 9.11417 32.0349 7.26865C32.3074 6.33894 32.4177 5.29676 32.1469 4.24958C31.874 3.19416 31.225 2.1768 30.0533 1.28979L30.0533 1.28976C29.8051 1.10192 29.4914 0.996374 29.207 0.931911C28.914 0.865496 28.604 0.8324 28.3287 0.816417C28.0515 0.80033 27.798 0.800981 27.6144 0.805542C27.611 0.805627 27.6076 0.805712 27.6042 0.805799C27.6009 0.805712 27.5975 0.805627 27.5941 0.805542C27.4105 0.800981 27.157 0.80033 26.8798 0.816417C26.6044 0.8324 26.2945 0.865496 26.0015 0.931911C25.7171 0.996374 25.4034 1.10192 25.1552 1.28976L25.1552 1.28979C23.9835 2.1768 23.3345 3.19416 23.0616 4.24958C22.7908 5.29676 22.9011 6.33894 23.1736 7.26865C23.7145 9.11417 24.9236 10.6155 25.3329 11.0678C25.4345 11.1801 25.4657 11.3554 25.3416 11.6261C25.2123 11.9084 24.9879 12.1115 24.8786 12.1592C24.6147 12.2744 23.0467 13.0213 21.518 13.8127C20.7527 14.2088 19.988 14.621 19.3963 14.9745C19.1015 15.1505 18.8402 15.3177 18.6406 15.465C18.5412 15.5383 18.4479 15.6134 18.3707 15.6878C18.3058 15.7505 18.203 15.8581 18.1465 16C17.9901 16.3932 17.9497 16.9597 17.9382 17.3639C17.932 17.5789 17.9338 17.7732 17.9371 17.9137C17.9387 17.9841 17.9407 18.0414 17.9424 18.0816L17.9444 18.1286L17.9451 18.1416L17.9453 18.1453L17.9453 18.1464L17.9454 18.1468L17.9454 18.1469C17.9454 18.147 17.9454 18.1471 18.4446 18.1196L18.9439 18.0923L18.9439 18.092L18.9437 18.09L18.9433 18.0804L18.9415 18.0408C18.9401 18.0058 18.9383 17.9543 18.9368 17.8904C18.9338 17.7622 18.9322 17.5858 18.9378 17.3925C18.9488 17.0065 18.987 16.6306 19.0601 16.4123L19.0648 16.4077C19.0981 16.3756 19.153 16.3296 19.2342 16.2697C19.3957 16.1506 19.6252 16.0025 19.9091 15.8329C20.4747 15.495 21.2184 15.0938 21.9777 14.7007C23.4983 13.9135 25.0441 13.1781 25.2786 13.0757C25.6678 12.9059 26.0468 12.4879 26.2507 12.0427C26.46 11.586 26.5545 10.9275 26.0744 10.3969C25.7088 9.99282 24.6128 8.62389 24.1332 6.9874C23.8954 6.17611 23.8166 5.32434 24.0297 4.4999C24.2408 3.68372 24.7486 2.85181 25.7587 2.08713ZM19.0413 16.4325C19.0412 16.4325 19.0419 16.4316 19.0435 16.4297L19.0413 16.4325ZM36.1672 16.4325C36.1673 16.4325 36.1666 16.4316 36.165 16.4297L36.1672 16.4325Z" fill="white"/>
</svg>
